<svg xmlns="http://www.w3.org/2000/svg" xmlns:xlink="http://www.w3.org/1999/xlink" width="500" zoomAndPan="magnify" viewBox="0 0 375 374.999991" height="500" preserveAspectRatio="xMidYMid meet" version="1.0"><defs><g/><clipPath id="0f4d2c56ae"><path d="M 75 25.128906 L 299 25.128906 L 299 253 L 75 253 Z M 75 25.128906 " clip-rule="nonzero"/></clipPath><clipPath id="423b551fcc"><path d="M 296 273 L 365.402344 273 L 365.402344 336.378906 L 296 336.378906 Z M 296 273 " clip-rule="nonzero"/></clipPath><clipPath id="ac4c24ac21"><path d="M 9.902344 273 L 79 273 L 79 336.378906 L 9.902344 336.378906 Z M 9.902344 273 " clip-rule="nonzero"/></clipPath></defs><path fill="#083e78" d="M 274.550781 158.558594 L 274.550781 74.097656 L 193.601562 52.085938 L 193.601562 158.558594 L 274.550781 158.558594 " fill-opacity="1" fill-rule="nonzero"/><g clip-path="url(#0f4d2c56ae)"><path fill="#083e78" d="M 187.40625 25.140625 L 75.886719 55.46875 L 75.886719 192.257812 C 75.886719 214.347656 82.3125 234.9375 93.390625 252.261719 C 97.359375 250.863281 101.363281 249.554688 105.394531 248.335938 C 94.136719 231.945312 88.074219 212.570312 88.074219 192.257812 L 88.074219 64.785156 L 187.40625 37.769531 L 286.734375 64.785156 L 286.734375 192.257812 C 286.734375 212.546875 280.6875 231.90625 269.453125 248.28125 C 273.480469 249.5 277.488281 250.808594 281.457031 252.199219 C 292.515625 234.890625 298.921875 214.320312 298.921875 192.257812 L 298.921875 55.46875 L 187.40625 25.140625 " fill-opacity="1" fill-rule="nonzero"/></g><path fill="#083e78" d="M 187.507812 286.78125 C 170.617188 286.78125 153.988281 288.578125 137.75 292.136719 C 152.703125 299.585938 169.5625 303.773438 187.40625 303.773438 C 205.269531 303.773438 222.15625 299.574219 237.121094 292.101562 C 220.933594 288.566406 204.351562 286.78125 187.507812 286.78125 " fill-opacity="1" fill-rule="nonzero"/><path fill="#083e78" d="M 330.582031 192.191406 C 330.582031 192.191406 323.59375 194.625 319.019531 199.796875 C 319.15625 197.292969 319.230469 194.78125 319.230469 192.257812 L 319.230469 189.855469 C 330.886719 185.949219 330.15625 168.914062 330.15625 168.914062 C 330.15625 168.914062 323.453125 171.769531 319.230469 177.152344 L 319.230469 167.480469 C 330.886719 163.570312 330.15625 146.542969 330.15625 146.542969 C 330.15625 146.542969 323.453125 149.398438 319.230469 154.78125 L 319.230469 145.105469 C 330.886719 141.195312 330.15625 124.164062 330.15625 124.164062 C 330.15625 124.164062 323.453125 127.019531 319.230469 132.402344 L 319.230469 122.730469 C 330.886719 118.824219 330.15625 101.789062 330.15625 101.789062 C 330.15625 101.789062 323.453125 104.644531 319.230469 110.027344 L 319.230469 100.355469 C 330.886719 96.449219 330.15625 79.417969 330.15625 79.417969 C 330.15625 79.417969 323.453125 82.269531 319.230469 87.652344 L 319.230469 77.980469 C 330.886719 74.070312 330.15625 57.042969 330.15625 57.042969 C 330.15625 57.042969 323.453125 59.894531 319.230469 65.277344 L 319.230469 61.3125 C 330.207031 52.734375 317.199219 37.769531 317.199219 37.769531 C 317.199219 37.769531 304.195312 52.734375 315.167969 61.3125 L 315.167969 65.277344 C 310.945312 59.894531 304.246094 57.042969 304.246094 57.042969 C 304.246094 57.042969 303.511719 74.070312 315.167969 77.980469 L 315.167969 87.65625 C 310.945312 82.269531 304.246094 79.417969 304.246094 79.417969 C 304.246094 79.417969 303.511719 96.449219 315.167969 100.355469 L 315.167969 110.027344 C 310.945312 104.644531 304.246094 101.789062 304.246094 101.789062 C 304.246094 101.789062 303.511719 118.824219 315.167969 122.730469 L 315.167969 132.402344 C 310.945312 127.019531 304.246094 124.164062 304.246094 124.164062 C 304.246094 124.164062 303.511719 141.195312 315.167969 145.105469 L 315.167969 154.78125 C 310.945312 149.398438 304.246094 146.542969 304.246094 146.542969 C 304.246094 146.542969 303.511719 163.570312 315.167969 167.480469 L 315.167969 177.152344 C 310.945312 171.769531 304.246094 168.914062 304.246094 168.914062 C 304.246094 168.914062 303.511719 185.949219 315.167969 189.855469 L 315.167969 192.257812 C 315.167969 194.601562 315.101562 196.9375 314.980469 199.261719 C 311.117188 193.6875 304.730469 190.441406 304.730469 190.441406 C 304.730469 190.441406 302.914062 206.847656 313.683594 211.835938 C 312.09375 222.1875 309.234375 232.277344 305.121094 241.996094 C 302.753906 247.59375 300.007812 252.988281 296.898438 258.148438 C 298.15625 258.675781 299.414062 259.214844 300.664062 259.761719 C 303.753906 254.582031 306.492188 249.183594 308.863281 243.578125 C 313.101562 233.554688 316.050781 223.152344 317.691406 212.484375 C 330.148438 209.777344 330.582031 192.191406 330.582031 192.191406 " fill-opacity="1" fill-rule="nonzero"/><path fill="#083e78" d="M 61.054688 211.375 C 70.425781 206.671875 70.78125 192.191406 70.78125 192.191406 C 70.78125 192.191406 64.386719 194.417969 59.824219 199.140625 C 59.703125 196.855469 59.640625 194.5625 59.640625 192.257812 L 59.640625 189.78125 C 71.078125 185.742188 70.355469 168.914062 70.355469 168.914062 C 70.355469 168.914062 63.871094 171.679688 59.640625 176.894531 L 59.640625 167.410156 C 71.078125 163.367188 70.355469 146.542969 70.355469 146.542969 C 70.355469 146.542969 63.871094 149.304688 59.640625 154.519531 L 59.640625 145.035156 C 71.078125 140.992188 70.355469 124.164062 70.355469 124.164062 C 70.355469 124.164062 63.871094 126.929688 59.640625 132.144531 L 59.640625 122.65625 C 71.078125 118.617188 70.355469 101.789062 70.355469 101.789062 C 70.355469 101.789062 63.871094 104.554688 59.640625 109.769531 L 59.640625 100.28125 C 71.078125 96.242188 70.355469 79.417969 70.355469 79.417969 C 70.355469 79.417969 63.871094 82.179688 59.640625 87.390625 L 59.640625 77.910156 C 71.078125 73.867188 70.355469 57.042969 70.355469 57.042969 C 70.355469 57.042969 63.871094 59.804688 59.640625 65.019531 L 59.640625 61.148438 C 70.238281 52.539062 57.398438 37.769531 57.398438 37.769531 C 57.398438 37.769531 44.226562 52.925781 55.578125 61.476562 L 55.578125 65.550781 C 51.371094 59.992188 44.449219 57.042969 44.449219 57.042969 C 44.449219 57.042969 43.707031 74.277344 55.578125 78.050781 L 55.578125 87.925781 C 51.371094 82.367188 44.449219 79.417969 44.449219 79.417969 C 44.449219 79.417969 43.707031 96.652344 55.578125 100.425781 L 55.578125 110.300781 C 51.371094 104.742188 44.449219 101.789062 44.449219 101.789062 C 44.449219 101.789062 43.707031 119.027344 55.578125 122.800781 L 55.578125 132.675781 C 51.371094 127.117188 44.449219 124.164062 44.449219 124.164062 C 44.449219 124.164062 43.707031 141.402344 55.578125 145.175781 L 55.578125 155.050781 C 51.371094 149.492188 44.449219 146.542969 44.449219 146.542969 C 44.449219 146.542969 43.707031 163.777344 55.578125 167.550781 L 55.578125 177.425781 C 51.371094 171.867188 44.449219 168.914062 44.449219 168.914062 C 44.449219 168.914062 43.707031 186.152344 55.578125 189.925781 L 55.578125 192.257812 C 55.578125 194.929688 55.660156 197.589844 55.816406 200.238281 C 52.070312 194.070312 44.933594 190.441406 44.933594 190.441406 C 44.933594 190.441406 42.914062 208.636719 55.703125 212.53125 C 55.726562 212.617188 55.742188 212.703125 55.761719 212.789062 C 55.980469 212.773438 56.195312 212.75 56.410156 212.726562 C 56.617188 212.78125 56.828125 212.832031 57.042969 212.875 C 57.074219 212.792969 57.101562 212.710938 57.132812 212.628906 L 57.140625 212.628906 C 58.785156 223.246094 61.726562 233.601562 65.949219 243.578125 C 68.328125 249.210938 71.082031 254.632812 74.1875 259.832031 C 75.4375 259.285156 76.695312 258.75 77.957031 258.21875 C 74.828125 253.035156 72.066406 247.621094 69.6875 241.996094 C 65.515625 232.128906 62.632812 221.886719 61.054688 211.375 " fill-opacity="1" fill-rule="nonzero"/><path fill="#083e78" d="M 237.140625 309.976562 C 221.378906 316.640625 204.644531 320.023438 187.40625 320.023438 C 170.164062 320.023438 153.429688 316.640625 137.667969 309.976562 C 129.960938 306.714844 122.65625 302.742188 115.796875 298.09375 C 114.195312 298.617188 112.597656 299.15625 111.007812 299.714844 C 118.804688 305.265625 127.1875 309.953125 136.085938 313.714844 C 152.351562 320.597656 169.617188 324.085938 187.40625 324.085938 C 205.191406 324.085938 222.457031 320.597656 238.722656 313.714844 C 247.648438 309.941406 256.054688 305.238281 263.871094 299.664062 C 262.277344 299.109375 260.683594 298.566406 259.082031 298.046875 C 252.203125 302.714844 244.871094 306.707031 237.140625 309.976562 " fill-opacity="1" fill-rule="nonzero"/><path fill="#083e78" d="M 284.40625 300.511719 C 222.78125 273.179688 152.238281 273.179688 90.613281 300.511719 C 85.542969 289.234375 80.476562 277.960938 75.40625 266.6875 C 146.625 235.042969 228.390625 235.042969 299.613281 266.6875 C 294.546875 277.960938 289.476562 289.234375 284.40625 300.511719 " fill-opacity="1" fill-rule="nonzero"/><g clip-path="url(#423b551fcc)"><path fill="#083e78" d="M 340.949219 336.375 C 327.351562 324.878906 312.683594 314.9375 296.945312 306.605469 C 302.671875 295.648438 308.394531 284.691406 314.121094 273.738281 C 332.328125 283.359375 349.316406 294.871094 365.03125 308.175781 C 353.414062 306.199219 341.738281 305.035156 329.953125 304.742188 C 334.296875 315.054688 337.972656 325.585938 340.949219 336.375 " fill-opacity="1" fill-rule="nonzero"/></g><g clip-path="url(#ac4c24ac21)"><path fill="#083e78" d="M 34.070312 336.375 C 47.667969 324.878906 62.339844 314.9375 78.074219 306.605469 C 72.347656 295.648438 66.625 284.691406 60.898438 273.738281 C 42.691406 283.359375 25.707031 294.871094 9.988281 308.175781 C 21.605469 306.199219 33.28125 305.035156 45.066406 304.742188 C 40.722656 315.054688 37.046875 325.585938 34.070312 336.375 " fill-opacity="1" fill-rule="nonzero"/></g><path fill="#ffffff" d="M 251.136719 130.027344 C 249.003906 128.71875 246.746094 127.679688 244.417969 126.910156 C 245.9375 123.273438 246.777344 119.417969 246.929688 115.535156 L 257.292969 115.535156 C 256.984375 121.117188 254.707031 126.175781 251.136719 130.027344 Z M 217.011719 98.425781 C 219.148438 99.734375 221.40625 100.773438 223.734375 101.542969 C 222.210938 105.175781 221.375 109.035156 221.222656 112.917969 L 210.855469 112.917969 C 211.167969 107.335938 213.445312 102.277344 217.011719 98.425781 Z M 235.382812 112.917969 L 235.382812 103.179688 C 237.570312 103.09375 239.75 102.789062 241.886719 102.269531 C 243.347656 105.664062 244.15625 109.28125 244.316406 112.917969 Z M 235.382812 125.273438 L 235.382812 115.535156 L 244.316406 115.535156 C 244.15625 119.171875 243.347656 122.789062 241.886719 126.183594 C 239.75 125.664062 237.570312 125.359375 235.382812 125.273438 Z M 243.300781 129.296875 C 245.332031 129.945312 247.308594 130.8125 249.183594 131.902344 C 245.9375 134.679688 241.925781 136.578125 237.5 137.230469 C 239.882812 134.839844 241.816406 132.15625 243.300781 129.296875 Z M 235.382812 135.648438 L 235.382812 127.886719 C 237.171875 127.964844 238.957031 128.203125 240.714844 128.59375 C 239.332031 131.140625 237.554688 133.523438 235.382812 135.648438 Z M 224.851562 129.296875 C 226.335938 132.15625 228.269531 134.839844 230.652344 137.230469 C 226.230469 136.578125 222.210938 134.679688 218.96875 131.902344 C 220.84375 130.8125 222.820312 129.945312 224.851562 129.296875 Z M 232.769531 135.648438 C 230.597656 133.523438 228.820312 131.140625 227.4375 128.59375 C 229.191406 128.203125 230.976562 127.964844 232.769531 127.886719 Z M 232.769531 115.535156 L 232.769531 125.273438 C 230.582031 125.359375 228.402344 125.660156 226.265625 126.183594 C 224.804688 122.789062 223.996094 119.171875 223.835938 115.535156 Z M 232.769531 103.179688 L 232.769531 112.917969 L 223.835938 112.917969 C 223.996094 109.28125 224.804688 105.664062 226.265625 102.269531 C 228.402344 102.789062 230.582031 103.09375 232.769531 103.179688 Z M 224.851562 99.160156 C 222.820312 98.507812 220.84375 97.636719 218.96875 96.546875 C 222.210938 93.773438 226.230469 91.875 230.652344 91.222656 C 228.269531 93.613281 226.335938 96.296875 224.851562 99.160156 Z M 232.769531 92.800781 L 232.769531 100.5625 C 230.976562 100.488281 229.191406 100.253906 227.4375 99.859375 C 228.820312 97.3125 230.597656 94.929688 232.769531 92.800781 Z M 237.5 91.222656 C 241.925781 91.875 245.9375 93.773438 249.183594 96.550781 C 247.308594 97.636719 245.332031 98.507812 243.300781 99.160156 C 241.820312 96.296875 239.882812 93.613281 237.5 91.222656 Z M 235.382812 92.800781 C 237.554688 94.929688 239.332031 97.3125 240.714844 99.859375 C 238.957031 100.253906 237.171875 100.488281 235.382812 100.5625 Z M 221.222656 115.535156 C 221.375 119.417969 222.210938 123.273438 223.734375 126.910156 C 221.40625 127.679688 219.148438 128.71875 217.011719 130.027344 C 213.445312 126.175781 211.167969 121.117188 210.855469 115.535156 Z M 257.292969 112.917969 L 246.929688 112.917969 C 246.777344 109.035156 245.9375 105.175781 244.417969 101.542969 C 246.746094 100.773438 249.003906 99.734375 251.136719 98.425781 C 254.707031 102.277344 256.984375 107.335938 257.292969 112.917969 Z M 234.074219 88.546875 C 219.894531 88.546875 208.394531 100.042969 208.394531 114.226562 C 208.394531 128.410156 219.894531 139.90625 234.074219 139.90625 C 248.257812 139.90625 259.753906 128.410156 259.753906 114.226562 C 259.753906 100.042969 248.257812 88.546875 234.074219 88.546875 " fill-opacity="1" fill-rule="nonzero"/><path fill="#083e78" d="M 100.261719 170.742188 L 100.261719 192.257812 C 100.261719 211.503906 106.460938 229.789062 117.910156 244.851562 C 121.613281 243.914062 125.335938 243.050781 129.074219 242.261719 C 146.253906 238.648438 163.832031 236.636719 181.417969 236.257812 L 181.417969 170.742188 L 100.261719 170.742188 " fill-opacity="1" fill-rule="nonzero"/><path fill="#3a95b5" d="M 193.601562 170.742188 L 193.601562 236.257812 C 211.1875 236.636719 228.765625 238.648438 245.941406 242.261719 C 249.621094 243.039062 253.285156 243.886719 256.933594 244.808594 C 268.363281 229.753906 274.550781 211.484375 274.550781 192.257812 L 274.550781 170.742188 L 193.601562 170.742188 " fill-opacity="1" fill-rule="nonzero"/><path fill="#3a95b5" d="M 181.417969 158.558594 L 181.417969 52.027344 L 100.261719 74.097656 L 100.261719 158.558594 L 181.417969 158.558594 " fill-opacity="1" fill-rule="nonzero"/><path fill="#ffffff" d="M 111.925781 98.050781 L 111.925781 130.910156 L 113.34375 130.757812 C 114.433594 130.640625 115.542969 130.582031 116.640625 130.582031 C 123.800781 130.582031 129.890625 133.109375 133.742188 135.230469 C 137.921875 137.53125 140.394531 139.832031 140.417969 139.851562 L 140.472656 139.90625 C 136.949219 137.996094 122.640625 130.988281 108.332031 134.65625 L 108.332031 98.234375 C 109.527344 98.105469 110.726562 98.046875 111.925781 98.050781 " fill-opacity="1" fill-rule="nonzero"/><path fill="#ffffff" d="M 137.980469 133.703125 C 133.351562 130.734375 125.808594 127.105469 116.640625 127.105469 C 116.226562 127.105469 115.8125 127.109375 115.402344 127.125 L 115.402344 96.121094 C 115.8125 96.101562 116.226562 96.09375 116.640625 96.09375 C 121.316406 96.09375 126.046875 97.179688 130.699219 99.316406 C 133.929688 100.800781 136.441406 102.492188 137.980469 103.644531 Z M 113.207031 94.082031 L 113.207031 129.480469 C 126.449219 128.054688 136.851562 135.304688 140.175781 137.964844 L 140.175781 102.566406 C 136.851562 99.90625 126.449219 92.65625 113.207031 94.082031 " fill-opacity="1" fill-rule="nonzero"/><path fill="#ffffff" d="M 169.699219 98.050781 L 169.699219 130.910156 L 168.28125 130.757812 C 167.191406 130.640625 166.082031 130.582031 164.984375 130.582031 C 157.824219 130.582031 151.730469 133.109375 147.878906 135.230469 C 143.703125 137.53125 141.230469 139.832031 141.207031 139.851562 L 141.152344 139.90625 C 144.675781 137.996094 158.980469 130.988281 173.289062 134.65625 L 173.289062 98.234375 C 172.09375 98.105469 170.894531 98.046875 169.699219 98.050781 " fill-opacity="1" fill-rule="nonzero"/><path fill="#ffffff" d="M 166.222656 127.125 C 165.808594 127.109375 165.394531 127.105469 164.984375 127.105469 C 155.8125 127.105469 148.273438 130.734375 143.644531 133.703125 L 143.644531 103.644531 C 145.183594 102.492188 147.695312 100.800781 150.921875 99.316406 C 155.578125 97.179688 160.308594 96.09375 164.984375 96.09375 C 165.394531 96.09375 165.808594 96.101562 166.222656 96.121094 Z M 141.449219 102.566406 L 141.449219 137.964844 C 144.773438 135.304688 155.171875 128.054688 168.417969 129.480469 L 168.417969 94.082031 C 155.171875 92.65625 144.773438 99.90625 141.449219 102.566406 " fill-opacity="1" fill-rule="nonzero"/><path fill="#ffffff" d="M 215.496094 221.796875 L 214.855469 229.5 L 222.070312 226.734375 C 220.351562 224.542969 218.082031 222.835938 215.496094 221.796875 Z M 228.722656 219.308594 C 226.898438 220.179688 224.664062 220.035156 222.933594 218.738281 C 221.203125 217.441406 220.441406 215.332031 220.769531 213.335938 C 219.347656 214.019531 217.679688 214.082031 216.191406 213.460938 L 215.609375 220.488281 C 218.667969 221.636719 221.339844 223.644531 223.296875 226.261719 L 229.882812 223.738281 C 228.871094 222.484375 228.464844 220.863281 228.722656 219.308594 Z M 254.792969 185.632812 L 248.921875 193.449219 L 251.386719 195.296875 L 255.277344 190.113281 C 256.324219 188.714844 256.097656 186.757812 254.792969 185.632812 Z M 230.777344 217.621094 C 229.605469 219.183594 229.648438 221.289062 230.746094 222.789062 L 250.105469 197.003906 L 247.640625 195.15625 Z M 247.917969 192.691406 L 253.789062 184.867188 L 246.847656 179.65625 L 240.972656 187.476562 Z M 222.828125 211.652344 C 221.390625 213.5625 221.777344 216.289062 223.695312 217.726562 C 225.605469 219.164062 228.332031 218.777344 229.769531 216.863281 L 246.632812 194.398438 L 239.691406 189.1875 Z M 245.832031 178.90625 C 244.386719 177.96875 242.441406 178.296875 241.394531 179.691406 L 237.503906 184.875 L 239.964844 186.722656 Z M 221.816406 210.894531 L 238.683594 188.429688 L 236.21875 186.582031 L 216.863281 212.367188 C 218.613281 213 220.644531 212.457031 221.816406 210.894531 " fill-opacity="1" fill-rule="nonzero"/><path fill="#ffffff" d="M 133.710938 191.253906 C 131.824219 191.253906 130.296875 192.785156 130.296875 194.667969 C 130.296875 196.550781 131.824219 198.082031 133.710938 198.082031 L 137.125 198.082031 L 137.125 194.667969 C 137.125 192.785156 135.597656 191.253906 133.710938 191.253906 " fill-opacity="1" fill-rule="nonzero"/><path fill="#ffffff" d="M 140.839844 214.710938 C 142.425781 214.710938 143.714844 213.421875 143.714844 211.835938 L 143.714844 198.917969 L 137.960938 198.917969 L 137.960938 211.835938 C 137.960938 213.421875 139.253906 214.710938 140.839844 214.710938 " fill-opacity="1" fill-rule="nonzero"/><path fill="#ffffff" d="M 151.378906 194.667969 C 151.378906 192.785156 149.851562 191.253906 147.96875 191.253906 C 146.082031 191.253906 144.550781 192.785156 144.550781 194.667969 L 144.550781 198.082031 L 147.96875 198.082031 C 149.851562 198.082031 151.378906 196.550781 151.378906 194.667969 " fill-opacity="1" fill-rule="nonzero"/><path fill="#ffffff" d="M 153.03125 183.765625 C 149.773438 180.550781 145.445312 178.785156 140.839844 178.785156 L 140.796875 178.785156 C 136.179688 178.789062 131.832031 180.601562 128.566406 183.875 C 125.300781 187.144531 123.503906 191.492188 123.503906 196.121094 C 123.503906 200.992188 125.574219 205.671875 129.183594 208.953125 C 131.1875 210.777344 132.890625 212.910156 134.246094 215.292969 L 134.246094 199.757812 L 135.085938 199.757812 L 135.085938 214.585938 C 136.261719 214.230469 137.125 213.132812 137.125 211.835938 L 137.125 198.917969 L 133.710938 198.917969 C 131.363281 198.917969 129.460938 197.015625 129.460938 194.667969 C 129.460938 192.320312 131.363281 190.417969 133.710938 190.417969 C 136.058594 190.417969 137.960938 192.320312 137.960938 194.667969 L 137.960938 198.082031 L 143.714844 198.082031 L 143.714844 194.667969 C 143.714844 192.320312 145.617188 190.417969 147.96875 190.417969 C 150.3125 190.417969 152.21875 192.320312 152.21875 194.667969 C 152.21875 197.015625 150.3125 198.917969 147.96875 198.917969 L 144.550781 198.917969 L 144.550781 211.835938 C 144.550781 213.132812 145.414062 214.230469 146.59375 214.585938 L 146.59375 199.757812 L 147.429688 199.757812 L 147.429688 215.382812 C 148.808594 212.945312 150.542969 210.753906 152.585938 208.867188 C 156.203125 205.535156 158.238281 200.804688 158.171875 195.886719 C 158.113281 191.285156 156.289062 186.976562 153.03125 183.765625 " fill-opacity="1" fill-rule="nonzero"/><path fill="#ffffff" d="M 146.804688 222.339844 C 146.804688 225.390625 144.6875 227.945312 141.839844 228.605469 C 144.042969 227.386719 145.535156 225.039062 145.535156 222.339844 L 145.535156 220.800781 L 146.804688 220.800781 Z M 133.679688 220.078125 L 133.679688 222.339844 C 133.679688 226.292969 136.882812 229.5 140.839844 229.5 C 144.792969 229.5 148 226.292969 147.996094 222.339844 L 147.996094 220.078125 L 133.679688 220.078125 " fill-opacity="1" fill-rule="nonzero"/><path fill="#ffffff" d="M 148 216.660156 L 133.679688 216.660156 L 133.679688 218.609375 L 148 218.609375 L 148 216.660156 " fill-opacity="1" fill-rule="nonzero"/><g fill="#ffffff" fill-opacity="1"><g transform="translate(101.139739, 287.632288)"><g><path d="M 2.75 -0.859375 L -4.265625 -23.375 L 2.96875 -25.625 L 9.984375 -3.109375 Z M 2.75 -0.859375 "/></g></g></g><g fill="#ffffff" fill-opacity="1"><g transform="translate(116.186209, 283.042502)"><g/></g></g><g fill="#ffffff" fill-opacity="1"><g transform="translate(129.382375, 279.585586)"><g><path d="M 18.59375 -11.59375 C 19.101562 -8.6875 18.65625 -6.398438 17.25 -4.734375 C 15.84375 -3.078125 13.585938 -1.976562 10.484375 -1.4375 C 7.367188 -0.882812 4.859375 -1.144531 2.953125 -2.21875 C 1.054688 -3.300781 -0.144531 -5.296875 -0.65625 -8.203125 L -0.71875 -8.515625 L 6.28125 -9.75 L 6.328125 -9.484375 C 6.515625 -8.421875 6.84375 -7.695312 7.3125 -7.3125 C 7.789062 -6.9375 8.4375 -6.820312 9.25 -6.96875 C 10.0625 -7.113281 10.625 -7.441406 10.9375 -7.953125 C 11.25 -8.472656 11.3125 -9.265625 11.125 -10.328125 L 8.46875 -25.4375 L 15.921875 -26.75 Z M 18.59375 -11.59375 "/></g></g></g><g fill="#ffffff" fill-opacity="1"><g transform="translate(154.124342, 275.506326)"><g/></g></g><g fill="#ffffff" fill-opacity="1"><g transform="translate(167.643093, 273.942558)"><g><path d="M 15.625 -17.984375 L 16.109375 -0.4375 L 8.53125 -0.234375 L 8.046875 -17.78125 L 0.296875 -17.5625 L 0.140625 -23.578125 L 23.171875 -24.21875 L 23.328125 -18.203125 Z M 15.625 -17.984375 "/></g></g></g><g fill="#ffffff" fill-opacity="1"><g transform="translate(194.564697, 273.542042)"><g/></g></g><g fill="#ffffff" fill-opacity="1"><g transform="translate(208.164882, 274.028948)"><g><path d="M 5.421875 -23.078125 L 25.671875 -20.5625 L 24.96875 -14.953125 L 12.234375 -16.53125 L 11.84375 -13.3125 L 22.734375 -11.96875 L 22.0625 -6.578125 L 11.171875 -7.921875 L 10.734375 -4.359375 L 23.703125 -2.75 L 23 2.859375 L 2.515625 0.3125 Z M 5.421875 -23.078125 "/></g></g></g><g fill="#ffffff" fill-opacity="1"><g transform="translate(234.840663, 277.680787)"><g/></g></g><g fill="#ffffff" fill-opacity="1"><g transform="translate(248.189761, 280.15469)"><g><path d="M 28.453125 -8.890625 C 28.054688 -7.492188 27.320312 -6.34375 26.25 -5.4375 C 25.1875 -4.539062 23.863281 -4.03125 22.28125 -3.90625 L 24.625 7.03125 L 16.453125 4.703125 L 14.78125 -4.734375 L 12.078125 -5.5 L 9.71875 2.78125 L 2.4375 0.6875 L 8.90625 -21.984375 L 22.78125 -18.015625 C 24.40625 -17.546875 25.707031 -16.832031 26.6875 -15.875 C 27.664062 -14.925781 28.296875 -13.835938 28.578125 -12.609375 C 28.859375 -11.378906 28.816406 -10.140625 28.453125 -8.890625 Z M 20.953125 -10.71875 C 21.117188 -11.300781 21.0625 -11.847656 20.78125 -12.359375 C 20.5 -12.867188 20.070312 -13.203125 19.5 -13.359375 L 14.71875 -14.71875 L 13.515625 -10.53125 L 18.296875 -9.171875 C 18.867188 -9.015625 19.410156 -9.082031 19.921875 -9.375 C 20.441406 -9.675781 20.785156 -10.125 20.953125 -10.71875 Z M 20.953125 -10.71875 "/></g></g></g><g fill="#083e78" fill-opacity="1"><g transform="translate(126.902885, 333.078537)"><g><path d="M 5.390625 -10.9375 L 15.25 -7.328125 L 14.25 -4.59375 L 8.0625 -6.875 L 7.484375 -5.3125 L 12.78125 -3.359375 L 11.828125 -0.734375 L 6.53125 -2.6875 L 5.890625 -0.953125 L 12.203125 1.359375 L 11.203125 4.09375 L 1.21875 0.453125 Z M 5.390625 -10.9375 "/></g></g></g><g fill="#083e78" fill-opacity="1"><g transform="translate(143.387708, 338.834103)"><g><path d="M 9.140625 -10.46875 C 10.648438 -10.09375 11.8125 -9.476562 12.625 -8.625 C 13.445312 -7.78125 13.722656 -6.753906 13.453125 -5.546875 L 13.40625 -5.359375 L 9.875 -6.21875 L 9.890625 -6.265625 C 9.972656 -6.609375 9.914062 -6.925781 9.71875 -7.21875 C 9.519531 -7.507812 9.164062 -7.71875 8.65625 -7.84375 C 8.15625 -7.96875 7.753906 -7.988281 7.453125 -7.90625 C 7.148438 -7.832031 6.972656 -7.691406 6.921875 -7.484375 C 6.835938 -7.160156 6.960938 -6.878906 7.296875 -6.640625 C 7.628906 -6.410156 8.179688 -6.113281 8.953125 -5.75 C 9.847656 -5.320312 10.570312 -4.925781 11.125 -4.5625 C 11.675781 -4.207031 12.125 -3.734375 12.46875 -3.140625 C 12.820312 -2.546875 12.898438 -1.84375 12.703125 -1.03125 C 12.367188 0.351562 11.644531 1.269531 10.53125 1.71875 C 9.425781 2.175781 8.085938 2.210938 6.515625 1.828125 C 4.671875 1.378906 3.316406 0.722656 2.453125 -0.140625 C 1.585938 -1.015625 1.347656 -2.234375 1.734375 -3.796875 L 5.296875 -2.921875 C 5.148438 -2.328125 5.203125 -1.894531 5.453125 -1.625 C 5.710938 -1.351562 6.164062 -1.140625 6.8125 -0.984375 C 7.300781 -0.859375 7.710938 -0.804688 8.046875 -0.828125 C 8.390625 -0.859375 8.601562 -1.035156 8.6875 -1.359375 C 8.75 -1.640625 8.625 -1.894531 8.3125 -2.125 C 8 -2.351562 7.46875 -2.644531 6.71875 -3 C 5.8125 -3.4375 5.070312 -3.84375 4.5 -4.21875 C 3.925781 -4.601562 3.46875 -5.109375 3.125 -5.734375 C 2.78125 -6.359375 2.71875 -7.101562 2.9375 -7.96875 C 3.25 -9.269531 3.976562 -10.101562 5.125 -10.46875 C 6.28125 -10.84375 7.617188 -10.84375 9.140625 -10.46875 Z M 9.140625 -10.46875 "/></g></g></g><g fill="#083e78" fill-opacity="1"><g transform="translate(160.405681, 342.741105)"><g><path d="M 9.375 -7.875 L 8.203125 1.078125 L 4.359375 0.578125 L 5.53125 -8.375 L 1.578125 -8.90625 L 1.984375 -11.96875 L 13.71875 -10.421875 L 13.3125 -7.359375 Z M 9.375 -7.875 "/></g></g></g><g fill="#083e78" fill-opacity="1"><g transform="translate(177.643076, 344.644768)"><g/></g></g><g fill="#083e78" fill-opacity="1"><g transform="translate(188.119491, 345.019361)"><g><path d="M 5.578125 -12.578125 C 6.535156 -12.617188 7.363281 -12.503906 8.0625 -12.234375 C 8.769531 -11.960938 9.328125 -11.554688 9.734375 -11.015625 C 10.140625 -10.484375 10.359375 -9.851562 10.390625 -9.125 C 10.410156 -8.457031 10.265625 -7.835938 9.953125 -7.265625 C 9.640625 -6.703125 9.234375 -6.195312 8.734375 -5.75 C 8.242188 -5.300781 7.5625 -4.753906 6.6875 -4.109375 C 6.1875 -3.753906 5.785156 -3.457031 5.484375 -3.21875 L 10.765625 -3.4375 L 10.890625 -0.453125 L 0.859375 -0.03125 L 0.828125 -0.875 C 0.796875 -1.5 0.914062 -2.0625 1.1875 -2.5625 C 1.457031 -3.070312 1.859375 -3.582031 2.390625 -4.09375 C 2.929688 -4.601562 3.710938 -5.304688 4.734375 -6.203125 C 5.546875 -6.910156 6.113281 -7.445312 6.4375 -7.8125 C 6.769531 -8.175781 6.929688 -8.53125 6.921875 -8.875 C 6.898438 -9.226562 6.753906 -9.523438 6.484375 -9.765625 C 6.222656 -10.003906 5.84375 -10.113281 5.34375 -10.09375 C 4.8125 -10.0625 4.398438 -9.882812 4.109375 -9.5625 C 3.816406 -9.25 3.679688 -8.851562 3.703125 -8.375 L 3.71875 -8.015625 L 0.59375 -7.875 C 0.570312 -7.96875 0.5625 -8.097656 0.5625 -8.265625 C 0.507812 -9.523438 0.910156 -10.539062 1.765625 -11.3125 C 2.617188 -12.09375 3.890625 -12.515625 5.578125 -12.578125 Z M 5.578125 -12.578125 "/></g></g></g><g fill="#083e78" fill-opacity="1"><g transform="translate(204.552059, 344.079588)"><g><path d="M 4.03125 -13.078125 C 5.894531 -13.347656 7.285156 -13.003906 8.203125 -12.046875 C 9.117188 -11.097656 9.722656 -9.617188 10.015625 -7.609375 C 10.316406 -5.597656 10.164062 -4 9.5625 -2.8125 C 8.957031 -1.632812 7.722656 -0.910156 5.859375 -0.640625 C 3.972656 -0.359375 2.570312 -0.695312 1.65625 -1.65625 C 0.738281 -2.613281 0.128906 -4.097656 -0.171875 -6.109375 C -0.460938 -8.117188 -0.304688 -9.710938 0.296875 -10.890625 C 0.898438 -12.066406 2.144531 -12.796875 4.03125 -13.078125 Z M 4.375 -10.703125 C 3.769531 -10.609375 3.367188 -10.3125 3.171875 -9.8125 C 2.984375 -9.3125 2.96875 -8.53125 3.125 -7.46875 L 3.375 -5.75 C 3.539062 -4.6875 3.785156 -3.941406 4.109375 -3.515625 C 4.441406 -3.085938 4.910156 -2.921875 5.515625 -3.015625 C 6.109375 -3.097656 6.492188 -3.390625 6.671875 -3.890625 C 6.859375 -4.390625 6.867188 -5.171875 6.703125 -6.234375 L 6.453125 -7.953125 C 6.296875 -9.023438 6.054688 -9.769531 5.734375 -10.1875 C 5.421875 -10.613281 4.96875 -10.785156 4.375 -10.703125 Z M 4.375 -10.703125 "/></g></g></g><g fill="#083e78" fill-opacity="1"><g transform="translate(220.798502, 341.440172)"><g><path d="M 2.84375 -13.46875 C 3.769531 -13.695312 4.609375 -13.75 5.359375 -13.625 C 6.117188 -13.507812 6.75 -13.234375 7.25 -12.796875 C 7.757812 -12.367188 8.101562 -11.800781 8.28125 -11.09375 C 8.445312 -10.4375 8.4375 -9.796875 8.25 -9.171875 C 8.0625 -8.546875 7.769531 -7.960938 7.375 -7.421875 C 6.976562 -6.890625 6.410156 -6.210938 5.671875 -5.390625 C 5.265625 -4.941406 4.941406 -4.570312 4.703125 -4.28125 L 9.828125 -5.59375 L 10.5625 -2.703125 L 0.828125 -0.21875 L 0.625 -1.03125 C 0.46875 -1.632812 0.472656 -2.207031 0.640625 -2.75 C 0.804688 -3.300781 1.09375 -3.882812 1.5 -4.5 C 1.914062 -5.113281 2.53125 -5.960938 3.34375 -7.046875 C 4 -7.898438 4.445312 -8.535156 4.6875 -8.953125 C 4.9375 -9.378906 5.015625 -9.757812 4.921875 -10.09375 C 4.835938 -10.445312 4.640625 -10.710938 4.328125 -10.890625 C 4.023438 -11.066406 3.632812 -11.09375 3.15625 -10.96875 C 2.632812 -10.84375 2.257812 -10.59375 2.03125 -10.21875 C 1.8125 -9.84375 1.765625 -9.421875 1.890625 -8.953125 L 1.984375 -8.59375 L -1.046875 -7.828125 C -1.078125 -7.910156 -1.113281 -8.035156 -1.15625 -8.203125 C -1.476562 -9.429688 -1.300781 -10.507812 -0.625 -11.4375 C 0.0507812 -12.363281 1.207031 -13.039062 2.84375 -13.46875 Z M 2.84375 -13.46875 "/></g></g></g><g fill="#083e78" fill-opacity="1"><g transform="translate(236.683471, 337.129649)"><g><path d="M 2.515625 -14.09375 C 2.660156 -13.488281 2.660156 -12.675781 2.515625 -11.65625 C 2.367188 -10.632812 2.144531 -9.578125 1.84375 -8.484375 C 1.539062 -7.398438 1.21875 -6.484375 0.875 -5.734375 L 4.15625 -6.953125 L 3.296875 -9.3125 C 3.453125 -9.925781 3.582031 -10.625 3.6875 -11.40625 C 3.789062 -12.195312 3.820312 -12.832031 3.78125 -13.3125 L 5.1875 -13.828125 L 7.296875 -8.109375 L 8.875 -8.703125 L 9.78125 -6.265625 L 8.203125 -5.671875 L 9.0625 -3.34375 L 5.921875 -2.1875 L 5.0625 -4.515625 L -0.484375 -2.46875 L -1.390625 -4.9375 C -1.109375 -6.007812 -0.90625 -7.265625 -0.78125 -8.703125 C -0.65625 -10.148438 -0.632812 -11.546875 -0.71875 -12.890625 Z M 2.515625 -14.09375 "/></g></g></g></svg>